<?xml version="1.0" standalone="no"?>
<!DOCTYPE svg PUBLIC "-//W3C//DTD SVG 20010904//EN"
 "http://www.w3.org/TR/2001/REC-SVG-20010904/DTD/svg10.dtd">
<svg version="1.0" xmlns="http://www.w3.org/2000/svg"
 width="285.000000pt" height="32.000000pt" viewBox="0 0 285.000000 32.000000"
 preserveAspectRatio="xMidYMid meet">

<g transform="translate(0.000000,32.000000) scale(0.100000,-0.100000)"
fill="#000000" stroke="none">
<path d="M12 308 c-17 -17 -17 -279 0 -296 17 -17 279 -17 296 0 17 17 17 279
0 296 -17 17 -279 17 -296 0z m296 -139 c2 -108 0 -139 -12 -148 -9 -8 -56
-11 -147 -9 l-134 3 -3 134 c-1 74 0 141 2 148 4 11 37 13 148 11 l143 -3 3
-136z"/>
<path d="M30 162 l0 -129 126 -6 c70 -4 130 -4 135 -1 11 6 11 67 2 182 l-6
82 -128 0 -129 0 0 -128z m110 73 c0 -8 -9 -15 -20 -15 -18 0 -20 -7 -20 -55
0 -59 14 -75 64 -75 49 0 56 8 56 70 0 49 -3 58 -20 63 -33 9 -23 29 13 25
l32 -3 3 -65 c4 -86 -8 -102 -80 -108 -78 -6 -98 14 -98 101 0 35 3 67 7 70
13 14 63 7 63 -8z"/>
</g>
</svg>
